<svg width="357" height="96" viewBox="0 0 357 96" fill="none" xmlns="http://www.w3.org/2000/svg">
<g clip-path="url(#clip0_238_5022)">
<path d="M48.121 0.000478285C21.8001 0.120899 0.560745 21.7064 0.676989 48.2158C0.796553 74.7251 22.2318 96.1166 48.5493 95.9995C74.8702 95.8791 96.1096 74.2936 95.9933 47.7876C95.8738 21.2749 74.4418 -0.116598 48.121 0.000478285ZM42.0862 45.6468C37.38 45.6468 33.5639 41.8067 33.5639 37.0668C33.5639 32.3269 37.38 28.4868 42.0862 28.4868C46.7924 28.4868 50.6053 32.3302 50.6053 37.0668C50.6053 41.8033 46.7891 45.6468 42.0862 45.6468ZM48.8815 54.9225L48.9247 54.869L48.9711 54.8155C51.4023 56.3944 54.1789 56.953 56.9521 57.0333C59.7287 57.1068 62.5584 56.8961 65.3416 56.3308C68.1214 55.7488 70.8548 54.8891 73.4952 53.7919C74.9765 53.1764 76.4511 52.5041 77.856 51.7147C77.8659 51.708 77.8726 51.7046 77.8826 51.6979C78.7561 51.1694 79.6096 50.6108 80.4466 50.0355C80.6292 49.905 80.8053 49.7678 80.978 49.6274L80.9979 49.6508L81.071 49.7377C78.9288 51.7013 76.3781 53.1597 73.7809 54.4475C71.1571 55.6919 68.4204 56.7121 65.594 57.448C62.7776 58.1806 59.8383 58.7359 56.8624 58.4616C53.9331 58.2007 50.8477 57.1671 48.8749 54.9259L48.8815 54.9225ZM70.7486 45.6468C70.7452 44.6165 71.5689 43.7869 72.5852 43.7769C73.6082 43.7736 74.4319 44.5998 74.4418 45.6267C74.4451 46.6536 73.6215 47.4932 72.6052 47.4966C71.5855 47.4999 70.7585 46.6704 70.7486 45.6468ZM56.1517 91.6844C54.3117 78.6957 65.5741 65.9745 71.9243 59.4651C73.3657 57.9899 75.5943 55.9562 77.6667 53.7953C85.9101 46.0315 87.5507 36.7557 70.6788 32.1195C67.4805 31.1862 64.1659 29.8649 60.8081 28.5302C60.7018 28.2192 60.5822 27.9248 60.4427 27.6472C60.0575 26.9782 59.3833 26.2088 58.3636 25.3357C56.1716 23.419 52.05 23.4692 48.4929 24.3189C44.5606 23.3856 40.6813 23.0544 36.9516 23.9542C20.6343 28.4834 18.0106 36.4981 17.3762 46.1552C16.5127 56.5917 16.0079 64.3689 12.0855 73.2533C7.18998 66.1418 4.3038 57.5149 4.26395 48.2057C4.15435 23.6933 23.7961 3.73353 48.1342 3.62315C72.4722 3.51276 92.2901 23.2953 92.3997 47.8077C92.4994 69.7009 76.8364 87.9681 56.1484 91.6911L56.1517 91.6844Z" fill="#0D1217"/>
<path d="M48.0777 37.1438C48.0777 40.4788 45.3941 43.1782 42.0862 43.1782C38.7782 43.1782 36.0913 40.4788 36.0913 37.1438C36.0913 33.8088 38.7749 31.1094 42.0862 31.1094C45.3974 31.1094 48.0777 33.8088 48.0777 37.1438Z" fill="#0D1217"/>
<path d="M145.13 41.8963C144.152 38.0459 141.681 35.2313 136.833 35.2313C129.701 35.2313 126.717 41.5701 126.717 47.9996C126.717 54.4291 129.701 60.7679 136.833 60.7679C142.008 60.7679 144.85 56.8705 145.317 51.9878H151.003C150.536 60.0146 144.896 65.5564 136.833 65.5564C126.857 65.5564 120.89 57.5766 120.89 47.9962C120.89 38.4158 126.857 30.4395 136.833 30.4395C144.339 30.4865 150.258 34.6664 150.956 41.8963H145.13Z" fill="#0D1217"/>
<path d="M154.455 52.6032C154.455 45.1851 158.882 39.835 166.622 39.835C174.361 39.835 178.788 45.1884 178.788 52.6032C178.788 60.018 174.361 65.4186 166.622 65.4186C158.882 65.4186 154.455 60.0651 154.455 52.6032ZM173.473 52.6032C173.473 48.4234 171.376 44.0585 166.622 44.0585C161.867 44.0585 159.77 48.4234 159.77 52.6032C159.77 56.7831 161.867 61.195 166.622 61.195C171.376 61.195 173.473 56.8302 173.473 52.6032Z" fill="#0D1217"/>
<path d="M183.356 31.2402H188.671V36.3112H183.356V31.2402ZM183.356 40.4877H188.671V64.7599H183.356V40.4877Z" fill="#0D1217"/>
<path d="M194.451 40.4907H199.486V44.0585L199.579 44.1527C201.165 41.476 203.913 39.835 207.085 39.835C212.307 39.835 215.615 42.6529 215.615 48.0972V64.7628H210.3V49.5062C210.207 45.7029 208.714 44.0619 205.592 44.0619C202.05 44.0619 199.766 46.8799 199.766 50.4477V64.7662H194.451V40.4941V40.4907Z" fill="#0D1217"/>
<path d="M250.993 64.7623H247.264L246.379 60.8179C243.257 64.3857 240.413 65.5593 236.356 65.5593C226.38 65.5593 220.413 57.5796 220.413 47.9992C220.413 38.4188 226.38 30.4424 236.356 30.4424C243.628 30.4424 249.735 34.3398 250.619 41.8992H244.933C244.373 37.4873 240.553 35.2343 236.356 35.2343C229.224 35.2343 226.239 41.573 226.239 48.0025C226.239 54.432 229.224 60.7708 236.356 60.7708C242.323 60.8649 245.585 57.25 245.678 51.5704H236.82V47.1114H250.99V64.7623H250.993Z" fill="#0D1217"/>
<path d="M260.736 54.0083C260.736 57.8115 262.786 61.1911 267.217 61.1911C270.292 61.1911 272.158 59.8292 273.09 57.1524H278.125C276.959 62.4588 272.485 65.4146 267.217 65.4146C259.664 65.4146 255.424 60.1083 255.424 52.6464C255.424 45.7461 259.898 39.8311 267.076 39.8311C274.676 39.8311 279.337 46.7314 278.452 54.0083H260.739H260.736ZM273.136 50.4875C272.949 47.108 270.666 44.0546 267.076 44.0546C263.487 44.0546 260.876 46.8726 260.736 50.4875H273.136Z" fill="#0D1217"/>
<path d="M298.775 48.6117C298.355 45.6525 296.211 44.0585 293.276 44.0585C290.525 44.0585 286.655 45.5146 286.655 52.8857C286.655 56.9243 288.428 61.195 293.043 61.195C296.118 61.195 298.264 59.1303 298.775 55.6566H304.091C303.112 61.9482 299.243 65.4219 293.043 65.4219C285.49 65.4219 281.343 60.0214 281.343 52.8857C281.343 45.75 285.307 39.835 293.23 39.835C298.822 39.835 303.577 42.6529 304.091 48.615H298.775V48.6117Z" fill="#0D1217"/>
<path d="M308.565 31.2402H313.88V50.3001L323.482 40.4877H330.007L320.778 49.409L330.895 64.7599H324.414L317.049 52.9769L313.88 56.0739V64.7599H308.565V31.2402Z" fill="#0D1217"/>
<path d="M332.337 52.6032C332.337 45.1851 336.764 39.835 344.504 39.835C352.243 39.835 356.67 45.1884 356.67 52.6032C356.67 60.018 352.243 65.4186 344.504 65.4186C336.764 65.4186 332.337 60.0651 332.337 52.6032ZM351.355 52.6032C351.355 48.4234 349.258 44.0585 344.504 44.0585C339.749 44.0585 337.652 48.4234 337.652 52.6032C337.652 56.7831 339.749 61.195 344.504 61.195C349.258 61.195 351.355 56.8302 351.355 52.6032Z" fill="#0D1217"/>
</g>
<defs>
<clipPath id="clip0_238_5022">
<rect width="356.67" height="96" fill="white"/>
</clipPath>
</defs>
</svg>
